<svg width="95" height="84" viewBox="0 0 95 84" fill="none" xmlns="http://www.w3.org/2000/svg">
<path d="M6.48113 0.765228C3.56159 1.78256 1.48872 4.10789 0.84642 7.04363C0.612857 8.09003 0.554466 16.4903 0.612857 35.122L0.700443 61.718L1.51791 63.3748C2.45217 65.2351 3.85355 66.6012 5.78044 67.5023C7.09424 68.1127 7.53217 68.1127 25.3122 68.1999L43.4717 68.2871V73.5191C43.4717 80.1463 43.8804 81.309 46.5372 82.5298C47.6175 83.0239 48.7561 83.082 62.3027 83.082C75.8494 83.082 76.988 83.0239 78.0683 82.5298C80.725 81.309 81.1338 80.1463 81.1338 73.5191V68.3162L84.8708 68.229C88.2283 68.1127 88.7246 68.0255 90.2427 67.2988C92.1113 66.3687 93.4834 64.9735 94.3885 63.0551C95.0016 61.718 95.0016 61.5727 95.0016 34.25C95.0016 6.92736 95.0016 6.78203 94.3885 5.44496C93.4834 3.52657 92.1113 2.13136 90.2427 1.20123L88.5786 0.387367L48.2889 0.329231C10.2181 0.271095 7.91171 0.271095 6.48113 0.765228ZM88.345 4.16603C90.9142 5.2415 91.6149 6.75296 91.6441 11.0548V14.194H47.851H4.05791V11.142C4.05791 6.8983 4.72941 5.35777 7.12343 4.2823C8.23286 3.75909 10.1014 3.73003 47.7926 3.73003C82.6811 3.73003 87.4108 3.78816 88.345 4.16603ZM91.6441 22.042V26.402H47.851H4.05791V22.042V17.682H47.851H91.6441V22.042ZM91.6441 45.2082C91.6441 59.4799 91.5857 60.6426 91.0894 61.718C90.0092 64.1015 88.4618 64.77 84.1993 64.77H81.1338V61.1948C81.1046 56.3988 80.4623 54.9746 77.8347 53.87C77.2508 53.6375 76.3749 53.434 75.9078 53.434H75.0611L74.9444 47.8242C74.8276 42.941 74.74 42.0399 74.1853 40.6447C72.9007 37.4474 70.0395 34.5988 66.828 33.3199C65.5434 32.8258 64.6092 32.6804 62.3027 32.6804C59.9963 32.6804 59.062 32.8258 57.7775 33.3199C54.566 34.5988 51.7048 37.4474 50.4202 40.6447C49.8655 42.0399 49.7779 42.941 49.6611 47.8242L49.5443 53.434H48.6393C47.5299 53.434 45.5738 54.306 44.8731 55.0618C43.7929 56.2826 43.4717 57.6778 43.4717 61.282V64.77H25.9545C10.8312 64.77 8.26205 64.7119 7.357 64.334C5.89722 63.7236 5.25493 63.1132 4.61263 61.718C4.11631 60.6426 4.05791 59.4799 4.05791 45.2082V29.89H47.851H91.6441V45.2082ZM66.3609 36.9823C68.2002 37.8834 69.8352 39.5692 70.711 41.4876C71.2657 42.6503 71.3533 43.4932 71.4409 48.1148L71.5577 53.434H62.3319H53.1062V48.6962C53.1062 43.406 53.4273 41.8074 54.8287 39.8599C57.4855 36.2266 62.3319 35.0058 66.3609 36.9823ZM77.0464 57.5034C77.6011 58.0556 77.6303 58.4626 77.6303 68.258C77.6303 78.0535 77.6011 78.4604 77.0464 79.0127C76.4917 79.565 76.083 79.594 62.3027 79.594C48.5225 79.594 48.1138 79.565 47.5591 79.0127C47.0043 78.4604 46.9752 78.0535 46.9752 68.258C46.9752 58.4626 47.0043 58.0556 47.5591 57.5034C48.1138 56.9511 48.5225 56.922 62.3027 56.922C76.083 56.922 76.4917 56.9511 77.0464 57.5034Z" fill="#F12525"/>
<path d="M10.7732 34.744C9.28419 35.2962 8.87545 36.6914 9.92648 37.6216C10.4812 38.1448 11.0651 38.1738 17.1961 38.1738C23.3272 38.1738 23.9111 38.1448 24.4658 37.6216C25.2541 36.924 25.2541 35.9357 24.4658 35.2381C23.9111 34.744 23.298 34.6858 17.5173 34.6277C14.043 34.5986 11.0067 34.6568 10.7732 34.744Z" fill="#F12525"/>
</svg>
