<svg width="30" height="30" viewBox="0 0 30 30" fill="none" xmlns="http://www.w3.org/2000/svg">
<rect width="30" height="30" fill="#C9C9C9"/>
<g id="Frame 2026">
<rect width="7393" height="3240" transform="translate(-3819 -1756)" fill="#A8A8A8"/>
<g id="Desktop - 354" clip-path="url(#clip0_676_12118)">
<rect width="1440" height="1461" transform="translate(-278 -769)" fill="#F3F3F3"/>
<g id="tabler:package-export">
<path id="Vector (Stroke)" fill-rule="evenodd" clip-rule="evenodd" d="M14.3872 2.66053C14.7677 2.44649 15.2323 2.44649 15.6128 2.66053L25.6128 8.28553C26.0064 8.50693 26.25 8.92341 26.25 9.375V15C26.25 15.6904 25.6904 16.25 25 16.25C24.3096 16.25 23.75 15.6904 23.75 15V11.5123L16.25 15.7311V26.25C16.25 26.6941 16.0144 27.1048 15.6311 27.329C15.2477 27.5532 14.7742 27.5572 14.3872 27.3395L4.38717 21.7145C3.99358 21.4931 3.75 21.0766 3.75 20.625V9.375C3.75 8.92341 3.99358 8.50693 4.38717 8.28553L14.3872 2.66053ZM15 13.5658L22.4503 9.375L15 5.18418L7.54966 9.375L15 13.5658ZM6.25 11.5123V19.8939L13.75 24.1127V15.7311L6.25 11.5123ZM22.8661 19.6339C22.378 19.1457 22.378 18.3543 22.8661 17.8661C23.3543 17.378 24.1457 17.378 24.6339 17.8661L28.3839 21.6161C28.872 22.1043 28.872 22.8957 28.3839 23.3839L24.6339 27.1339C24.1457 27.622 23.3543 27.622 22.8661 27.1339C22.378 26.6457 22.378 25.8543 22.8661 25.3661L24.4822 23.75H18.75C18.0596 23.75 17.5 23.1904 17.5 22.5C17.5 21.8096 18.0596 21.25 18.75 21.25H24.4822L22.8661 19.6339Z" fill="#363636"/>
</g>
</g>
</g>
<defs>
<clipPath id="clip0_676_12118">
<rect width="1440" height="1461" fill="white" transform="translate(-278 -769)"/>
</clipPath>
</defs>
</svg>
